<?xml version="1.0" standalone="no"?>
<!DOCTYPE svg PUBLIC "-//W3C//DTD SVG 20010904//EN"
 "http://www.w3.org/TR/2001/REC-SVG-20010904/DTD/svg10.dtd">
<svg version="1.0" xmlns="http://www.w3.org/2000/svg"
 width="1325.000000pt" height="1325.000000pt" viewBox="0 0 1325.000000 1325.000000"
 preserveAspectRatio="xMidYMid meet">
<metadata>
Created by potrace 1.14, written by Peter Selinger 2001-2017
</metadata>
<g transform="translate(0.000000,1325.000000) scale(0.100000,-0.100000)"
fill="#000000" stroke="none">
<path d="M6508 13245 c-2 -1 -48 -5 -103 -9 -55 -3 -113 -8 -130 -11 -16 -2
-52 -6 -80 -9 -53 -6 -213 -32 -255 -41 -14 -3 -36 -8 -50 -11 -112 -23 -439
-124 -465 -144 -5 -4 -21 -11 -35 -15 -27 -8 -272 -127 -304 -147 -11 -7 -52
-33 -90 -57 -103 -63 -198 -134 -307 -227 -152 -131 -237 -222 -417 -449 -89
-112 -258 -408 -336 -587 -9 -21 -23 -55 -32 -75 -9 -21 -22 -51 -30 -68 -16
-36 -102 -289 -109 -319 -2 -12 -14 -55 -25 -96 -28 -100 -83 -346 -94 -420
-3 -19 -8 -46 -11 -60 -3 -14 -7 -50 -10 -80 -4 -30 -8 -62 -11 -71 -2 -9 -7
-43 -9 -75 -2 -33 -7 -77 -9 -99 -3 -22 -8 -60 -10 -83 -3 -24 -7 -46 -10 -50
-4 -3 -444 -6 -979 -6 l-972 -1 -3 -4992 -2 -4993 27 -1 c166 -3 4235 0 4239
4 3 2 5 374 5 826 l-1 821 565 0 565 0 0 -825 c0 -779 1 -825 18 -826 22 0
4553 0 4567 0 7 1 10 1672 10 4994 l0 4994 -970 -1 -970 0 2 64 c7 235 2 476
-12 595 -16 136 -25 204 -30 230 -27 146 -29 157 -55 260 -11 45 -22 91 -24
101 -5 21 -80 236 -95 269 -5 11 -21 49 -36 85 -39 92 -161 323 -188 355 -4 6
-16 22 -25 36 -140 218 -356 452 -551 599 -18 14 -38 30 -44 35 -26 23 -117
84 -203 137 -253 156 -593 292 -884 354 -14 2 -33 7 -42 10 -10 3 -30 7 -45
10 -16 2 -37 6 -49 9 -20 4 -138 22 -194 30 -78 10 -151 18 -195 21 -57 5
-493 13 -497 9z m432 -839 c19 -3 58 -7 85 -10 256 -29 529 -130 755 -282 135
-90 294 -234 369 -334 14 -19 32 -42 40 -50 30 -31 141 -209 184 -295 106
-210 188 -471 212 -675 3 -25 8 -56 10 -70 18 -97 24 -363 15 -560 l-5 -95
520 -1 c286 -1 526 -2 533 -3 11 -1 12 -14 8 -53 -3 -29 -8 -80 -11 -113 -3
-33 -8 -71 -10 -85 -3 -14 -7 -38 -9 -55 -81 -514 -249 -938 -548 -1384 -61
-91 -220 -306 -237 -321 -4 -3 -26 -30 -51 -60 -25 -30 -47 -57 -51 -60 -3 -3
-27 -30 -54 -60 -26 -30 -103 -113 -170 -185 -67 -71 -138 -146 -156 -166 -19
-20 -81 -87 -139 -149 -236 -253 -401 -430 -425 -454 -43 -45 -214 -244 -253
-295 -70 -93 -202 -279 -202 -286 0 -2 -11 -20 -24 -40 -26 -37 -136 -249
-137 -262 -1 -5 -9 -24 -19 -43 -28 -57 -100 -263 -116 -335 -1 -5 -11 -48
-22 -95 -11 -47 -24 -110 -28 -140 -4 -30 -8 -57 -9 -60 -4 -17 -17 -117 -20
-153 -16 -188 -19 -273 -19 -570 -1 -330 -1 -338 -21 -342 -11 -2 -235 -3
-497 -3 l-478 1 -1 41 c-5 352 4 975 16 1036 2 11 7 55 10 98 6 77 12 127 15
127 0 0 3 18 5 40 2 22 6 54 9 70 3 17 8 46 11 65 25 147 101 409 157 541 75
178 254 488 354 614 14 17 28 35 32 40 36 48 108 141 112 145 3 3 30 34 60 70
30 36 60 70 65 76 6 6 36 40 67 76 31 35 78 87 105 115 26 28 89 95 139 149
51 55 109 118 130 140 48 51 241 257 280 300 16 17 74 79 129 138 164 176 173
187 257 291 44 55 86 108 93 117 7 9 18 25 24 36 6 11 17 27 23 34 7 8 18 23
25 33 7 11 39 63 72 115 53 85 76 126 141 250 76 144 185 431 236 625 24 90
68 328 69 370 0 20 -7 20 -1972 20 -2059 0 -1976 -1 -1975 35 0 21 14 181 18
206 3 17 7 46 9 65 2 19 7 57 10 84 5 40 34 187 71 360 2 11 13 52 25 90 22
77 22 77 34 120 10 38 69 195 98 260 53 121 166 328 188 345 3 3 12 16 19 30
46 89 256 309 385 406 95 70 195 137 195 128 0 -3 12 3 28 14 63 45 337 151
436 169 11 2 47 10 80 17 34 8 88 18 121 21 33 4 62 9 65 10 3 2 53 7 110 10
58 4 106 8 107 9 4 3 262 -3 293 -8z"/>
<path d="M6010 49 c0 -3 -27 -3 -60 -1 -59 4 -60 4 -60 -22 l0 -26 565 0 565
0 0 25 c0 23 -4 25 -47 26 -27 1 -52 0 -58 -1 -5 -1 -57 -2 -115 -1 -58 0
-145 0 -195 0 -49 0 -97 0 -105 0 -47 1 -207 1 -283 -2 -48 -1 -87 0 -87 3 0
3 -27 5 -60 5 -33 0 -60 -3 -60 -6z"/>
</g>
</svg>
