<?xml version="1.0" encoding="UTF-8"?>
<svg viewBox="0 0 17 32" version="1.1" xmlns="http://www.w3.org/2000/svg" xmlns:xlink="http://www.w3.org/1999/xlink">
    <g stroke="none" fill-rule="evenodd">
        <g transform="translate(-7.000000, 0.000000)" fill-rule="nonzero">
            <g transform="translate(7.000000, 0.000000)">
                <path d="M16.1434615,0.405384615 L12.1811538,0.405384615 C7.72846154,0.405384615 4.845,3.36076923 4.845,7.93115385 L4.845,11.4030769 L0.856538462,11.4030769 C0.495429202,11.4030769 0.202692308,11.6958138 0.202692308,12.0569231 L0.202692308,17.085 C0.202692308,17.4461093 0.495429202,17.7388462 0.856538462,17.7388462 L4.845,17.7388462 L4.845,30.4234615 C4.845,30.7845708 5.13773689,31.0773077 5.49884615,31.0773077 L10.7296154,31.0773077 C11.0907246,31.0773077 11.3834615,30.7845708 11.3834615,30.4234615 L11.3834615,17.6538462 L15.9538462,17.6538462 C16.3149554,17.6538462 16.6076923,17.3611093 16.6076923,17 L16.6076923,12.0242308 C16.6076923,11.6631215 16.3149554,11.3703846 15.9538462,11.3703846 L11.2919231,11.3703846 L11.2919231,8.42807692 C11.2919231,7.01576923 11.6319231,6.29653846 13.4692308,6.29653846 L16.1434615,6.29653846 C16.5045708,6.29653846 16.7973077,6.00380157 16.7973077,5.64269231 L16.7973077,1.03307692 C16.7832623,0.682220515 16.4945989,0.405103597 16.1434615,0.405384615 Z"></path>
            </g>
        </g>
    </g>
</svg>