<?xml version="1.0" encoding="UTF-8"?>
<svg viewBox="0 0 28 29" version="1.1" xmlns="http://www.w3.org/2000/svg" xmlns:xlink="http://www.w3.org/1999/xlink">
    <g stroke="none" fill-rule="evenodd">
        <g transform="translate(-2.000000, -2.000000)" fill="#000000" fill-rule="nonzero">
            <g transform="translate(2.000000, 2.000000)">
                <path d="M27.9359252,17.6751673 L27.9359252,28.3844396 L22.0032834,28.3844396 L22.0032834,18.3924097 C22.0032834,15.8823304 21.1451908,14.1692993 18.9977711,14.1692993 C17.3584885,14.1692993 16.3829503,15.3237567 15.9537753,16.4405 C15.797267,16.8397313 15.7569816,17.395409 15.7569816,17.954252 L15.7569816,28.3844396 L9.82234481,28.3844396 C9.82234481,28.3844396 9.90227214,11.4612207 9.82234481,9.70784905 L15.7564023,9.70784905 L15.7564023,12.355181 C15.7443682,12.3749809 15.7287303,12.3963298 15.717404,12.4155236 L15.7564023,12.4155236 L15.7564023,12.355181 C16.5448,11.0844159 17.9527952,9.26908522 21.1043262,9.26908522 C25.0088601,9.26908522 27.9359252,11.9384395 27.9359252,17.6751673 Z M3.61446213,0.704805684 C1.58423061,0.704805684 0.256291368,2.09841122 0.256291368,3.93104999 C0.256291368,5.72375212 1.54581144,7.15965143 3.53569316,7.15965143 L3.57533506,7.15965143 C5.64488673,7.15965143 6.93196133,5.72402151 6.93196133,3.93104999 C6.892963,2.09841122 5.64488673,0.704805684 3.61446213,0.704805684 Z M0.608756754,28.3844396 L6.54114116,28.3844396 L6.54114116,9.70784905 L0.608756754,9.70784905 L0.608756754,28.3844396 Z"></path>
            </g>
        </g>
    </g>
</svg>