<?xml version="1.0" encoding="utf-8"?>
<!-- Generator: Adobe Illustrator 22.1.0, SVG Export Plug-In . SVG Version: 6.00 Build 0)  -->
<svg version="1.1" id="Layer_1" xmlns="http://www.w3.org/2000/svg" xmlns:xlink="http://www.w3.org/1999/xlink" x="0px" y="0px"
	 viewBox="0 0 14 16" style="enable-background:new 0 0 14 16;" xml:space="preserve">
<style type="text/css">
	.st0{filter:url(#Adobe_OpacityMaskFilter);}
	.st1{fill:#FFFFFF;}
	.st2{mask:url(#mask-2_1_);}
</style>
<title>Group 8</title>
<desc>Created with Sketch.</desc>
<g id="Acceuil-_x2B_-menu">
	<g id="Mes-outils-touristiques-Copy" transform="translate(-128.000000, -674.000000)">
		<g id="Group-8" transform="translate(128.000000, 674.000000)">
			<path id="Fill-1" d="M6.5,7.9c-0.2,0-0.3,0-0.3,0V10c0.1,0,0.2,0,0.2,0C7,10,7.5,9.6,7.5,8.9C7.5,8.2,7.1,7.9,6.5,7.9"/>
			<path id="Fill-3" d="M4.3,8.3c0-0.3-0.2-0.5-0.6-0.5c-0.1,0-0.2,0-0.3,0v0.9c0.1,0,0.1,0,0.2,0C4,8.8,4.3,8.7,4.3,8.3"/>
			<g id="Group-7">
				<g id="Clip-6">
				</g>
				<defs>
					<filter id="Adobe_OpacityMaskFilter" filterUnits="userSpaceOnUse" x="0" y="0" width="13.3" height="16">
						<feColorMatrix  type="matrix" values="1 0 0 0 0  0 1 0 0 0  0 0 1 0 0  0 0 0 1 0"/>
					</filter>
				</defs>
				<mask maskUnits="userSpaceOnUse" x="0" y="0" width="13.3" height="16" id="mask-2_1_">
					<g class="st0">
						<polygon id="path-1_1_" class="st1" points="0,0 13.3,0 13.3,16 0,16 						"/>
					</g>
				</mask>
				<path id="Fill-5" class="st2" d="M12.4,6.5H0.9V1.2C0.9,1,1,0.9,1.2,0.9h7.1c0.1,0,0.1,0,0.1,0.1v2.8c0,0.8,0.3,1.1,1.1,1.1h2.8
					c0.1,0,0.1,0,0.1,0.1V6.5z M10.5,8.7v0.6H9.4v1.3H8.7V7.4h1.9v0.6H9.4v0.7H10.5z M5.4,10.5V7.4c0.3,0,0.6-0.1,1-0.1
					c0.6,0,1,0.1,1.3,0.3C8,7.9,8.2,8.3,8.2,8.9c0,0.6-0.2,1-0.5,1.3c-0.3,0.3-0.8,0.4-1.4,0.4C5.9,10.5,5.6,10.5,5.4,10.5L5.4,10.5
					z M2.7,10.5V7.4c0.2,0,0.5-0.1,1-0.1c0.4,0,0.8,0.1,1,0.3C4.8,7.7,5,8,5,8.3c0,0.3-0.1,0.6-0.3,0.7c-0.2,0.2-0.6,0.3-1,0.3
					c-0.1,0-0.2,0-0.2,0v1.1H2.7z M12.4,14.8c0,0.2-0.1,0.3-0.3,0.3H1.2c-0.2,0-0.3-0.1-0.3-0.3v-3.4h11.5V14.8z M9.2,0.5
					C8.8,0.1,8.6,0,8,0H1.1C0.3,0,0,0.3,0,1.1v13.9C0,15.7,0.3,16,1.1,16h11.2c0.8,0,1.1-0.3,1.1-1.1V5.3c0-0.5-0.1-0.8-0.5-1.2
					L9.2,0.5z"/>
			</g>
		</g>
	</g>
</g>
</svg>
