<?xml version="1.0" encoding="UTF-8"?>
<svg viewBox="0 0 32 44" version="1.1" xmlns="http://www.w3.org/2000/svg" xmlns:xlink="http://www.w3.org/1999/xlink">
    <g id="pdf" fill-rule="evenodd">
        <g id="Desktop-HD" transform="translate(-687.000000, -7451.000000)">
            <g transform="translate(230.000000, 7422.000000)">
                <g transform="translate(432.000000, 1.000000)">
                    <g transform="translate(25.000000, 28.000000)">
                        <path d="M0,0 L0,44 L32,44 L32,13.2201481 L19.3396961,0 L0,0 Z M1.67501265,1.77777778 L18.6540575,1.77777778 L30.324429,13.965037 L30.324429,42.2222222 L1.67501265,42.2222222 L1.67501265,1.77777778 Z"></path>
                        <polygon points="31 15 18 15 18 1 19.6552075 1 19.6552075 13.2032086 31 13.2032086"></polygon>
                        <g transform="translate(7.000000, 28.000000)">
                            <path d="M1.69363636,4.32534375 L2.85490909,4.32534375 C3.21381818,4.32534375 3.48654545,4.19315625 3.67309091,3.92821875 C3.86018182,3.66328125 3.954,3.32690625 3.954,2.91796875 C3.954,2.50115625 3.86018182,2.15746875 3.67309091,1.88690625 C3.48654545,1.61634375 3.21381818,1.48078125 2.85490909,1.48078125 L1.69363636,1.48078125 L1.69363636,4.32534375 Z M1.69363636,5.61628125 L1.69363636,8.69484375 L0.0965454545,8.69484375 L0.0965454545,0.18984375 L2.85490909,0.18984375 C3.68181818,0.18984375 4.33690909,0.44015625 4.82018182,0.94021875 C5.30345455,1.44084375 5.54563636,2.09615625 5.54563636,2.90615625 C5.54563636,3.72009375 5.30345455,4.37540625 4.82018182,4.87153125 C4.33690909,5.36821875 3.68181818,5.61628125 2.85490909,5.61628125 L1.69363636,5.61628125 Z"></path>
                            <path d="M8.16212727,1.48095 L8.16212727,7.4097 L9.10794545,7.4097 C9.51976364,7.4097 9.85249091,7.199325 10.1050364,6.778575 C10.3581273,6.3583875 10.4841273,5.8150125 10.4841273,5.1490125 L10.4841273,3.729825 C10.4841273,3.0717 10.3581273,2.5322625 10.1050364,2.1115125 C9.85249091,1.691325 9.51976364,1.48095 9.10794545,1.48095 L8.16212727,1.48095 Z M6.56503636,8.69445 L6.56503636,0.1900125 L9.10794545,0.1900125 C9.96921818,0.1900125 10.6810364,0.5218875 11.2434,1.1862 C11.8063091,1.8493875 12.0872182,2.701575 12.0872182,3.7416375 L12.0872182,5.1490125 C12.0872182,6.19245 11.8063091,7.0446375 11.2434,7.70445 C10.6810364,8.3642625 9.96921818,8.69445 9.10794545,8.69445 L6.56503636,8.69445 Z"></path>
                            <polygon points="17.4225818 5.1372 14.8060364 5.1372 14.8060364 8.69445 13.2084 8.69445 13.2084 0.1900125 17.9211273 0.1900125 17.9211273 1.48095 14.8060364 1.48095 14.8060364 3.85245 17.4225818 3.85245"></polygon>
                        </g>
                    </g>
                </g>
            </g>
        </g>
    </g>
</svg>