<?xml version="1.0" encoding="UTF-8"?>
<svg viewBox="0 0 32 25" version="1.1" xmlns="http://www.w3.org/2000/svg" xmlns:xlink="http://www.w3.org/1999/xlink">
    <defs>
        <polygon id="path-1" points="0 0 32 0 32 24.5714286 0 24.5714286"></polygon>
    </defs>
    <g fill-rule="evenodd">
        <g transform="translate(0.000000, -4.000000)">
            <g transform="translate(0.000000, 4.000000)">
                <mask id="mask-2" fill="white">
                    <use xlink:href="#path-1"></use>
                </mask>
                <g id="path-1"></g>
                <path d="M32,2.90782949 C30.8225793,3.40154412 29.5558546,3.73308097 28.2270604,3.88508522 C29.5849893,3.1160873 30.6268704,1.90065167 31.1145594,0.453619008 C29.8478347,1.16396962 28.4398702,1.67862971 26.9457684,1.95690522 C25.7480801,0.750446222 24.0430687,0 22.1556489,0 C18.5283825,0 15.5870478,2.77497538 15.5870478,6.20165407 C15.5870478,6.68579361 15.6465838,7.1603581 15.7599557,7.61637087 C10.3022722,7.35664705 5.46781728,4.88568019 2.22690207,1.13165375 C1.66067611,2.05265594 1.33892804,3.1160873 1.33892804,4.25252859 C1.33892804,6.40512433 2.49671444,8.30338224 4.26062862,9.41827962 C3.1820125,9.38596375 2.16989946,9.10529447 1.28445887,8.64030507 L1.28445887,8.71690564 C1.28445887,11.7258718 3.54809595,14.2291546 6.54896683,14.8018635 C5.99984166,14.9448912 5.41841502,15.0196964 4.81988758,15.0196964 C4.39680153,15.0196964 3.98574934,14.9819945 3.58293088,14.9071893 C4.42150265,17.3691796 6.84601377,19.1663008 9.71577863,19.215373 C7.47177579,20.8802385 4.64191275,21.8688647 1.56377167,21.8688647 C1.03174729,21.8688647 0.512390151,21.8407379 0,21.782689 C2.90206635,23.5451006 6.35389122,24.5714286 10.0622279,24.5714286 C22.1385481,24.5714286 28.7438841,15.1178409 28.7438841,6.92157975 C28.7438841,6.65287931 28.7369172,6.38178509 28.7267833,6.12026596 C30.0080753,5.24594224 31.1215264,4.15199034 32,2.90782949" fill-rule="nonzero" mask="url(#mask-2)"></path>
            </g>
        </g>
    </g>
</svg>